<?xml version="1.0" encoding="UTF-8"?>
<svg width="32px" height="32px" viewBox="0 0 32 32" version="1.1" xmlns="http://www.w3.org/2000/svg" xmlns:xlink="http://www.w3.org/1999/xlink">
    <title>docs</title>
    <g id="色彩规范" stroke="none" stroke-width="1" fill="none" fill-rule="evenodd">
        <g id="NutBox-icon" transform="translate(-180.000000, -512.000000)">
            <g id="编组-4" transform="translate(100.000000, 512.000000)">
                <g id="编组-17" transform="translate(80.000000, 0.000000)">
                    <rect id="矩形备份-8" fill="#F6F7F9" x="0" y="0" width="32" height="32" rx="16"></rect>
                    <g id="docs" transform="translate(8.000000, 9.000000)" fill="#242629" fill-rule="nonzero">
                        <path d="M12.643,14 C13.979,14 15,12.845 15,11.5 L15,4 L1,4 L1,11.5 C1,12.845 2.021,14 3.357,14 L12.643,14 Z M5.5,6 L10.5,6 C10.7761424,6 11,6.3581722 11,6.8 C11,7.2418278 10.7761424,7.6 10.5,7.6 L5.5,7.6 C5.22385763,7.6 5,7.2418278 5,6.8 C5,6.3581722 5.22385763,6 5.5,6 Z M0.8,0 C0.3581722,0 0,0.3581722 0,0.8 L0,2 C0,2.4418278 0.3581722,2.8 0.8,2.8 L15.2,2.8 C15.6418278,2.8 16,2.4418278 16,2 L16,0.8 C16,0.3581722 15.6418278,0 15.2,0 L0.8,0 Z" id="形状"></path>
                    </g>
                </g>
            </g>
        </g>
    </g>
</svg>