<svg t="1614160271269" class="icon" viewBox="0 0 1024 1024" version="1.1" xmlns="http://www.w3.org/2000/svg" p-id="3915" width="32" height="32"><path d="M802.02321458 636.43032825c-15.71090003-16.02511803-41.79099409-16.02511803-57.81611214-0.314218L552.84834009 826.84643663 552.84834009 100.06020117c0-22.30947806-18.22464404-40.53412208-40.84834009-40.53412206s-40.84834009 18.22464404-40.84834009 40.53412206l0 726.78623546-191.35876235-191.04454438c-16.02511803-15.71090003-41.79099408-15.39668203-57.81611214 0.31421801-15.71090003 16.02511803-15.71090002 41.47677609 0.314218 57.50189409l260.80094053 258.91563252c3.770616 3.45639799 7.85545002 6.28436002 12.88293802 8.48388602 5.02748801 2.19952601 10.36919402 3.14217999 15.71090004 3.14218 10.68341203 0 20.73838803-4.08483399 28.59383805-11.62606602l260.80094051-258.91563252c16.33933604-15.39668204 16.65355405-41.1625581 0.94265401-57.1876761z" p-id="3916" fill="#fc0970"></path></svg>